<svg xmlns="http://www.w3.org/2000/svg"  fill="white" width="24" height="24"><path d="M13 14.5v3.332a.878.878 0 001.456.66L22.31 11.7c.4-.35.4-.971 0-1.321l-7.853-6.873a.878.878 0 00-1.456.66V7.5c-6.541.41-9.74 4.36-10.69 9.389a17.533 17.533 0 00-.228 1.644c-.053.581-.08 1.173-.083 1.77v.085c0 .152.205.196.276.062l.033-.062a12.284 12.284 0 014.74-4.837c1.14-.647 2.463-.958 3.951-1.048l.054-.003c.62-.035 1.27-.033 1.946 0zm-7.79-.164c.278-.184.562-.359.853-.524 2.111-1.198 4.56-1.428 7.033-1.31l1.904.092v2.783l5.022-4.343-5.021-4.394v2.738l-1.875.117c-3.487.219-5.667 1.552-7.025 3.364a8.8 8.8 0 00-.89 1.477z" fill-rule="evenodd"/></svg>
